<svg width="18" height="18" viewBox="0 0 18 18" fill="none" xmlns="http://www.w3.org/2000/svg">
<path d="M13.7554 12.7598C14.937 11.5776 15.6008 9.97449 15.6008 8.303C15.6008 6.63151 14.937 5.02843 13.7554 3.8462C13.1705 3.26091 12.476 2.79661 11.7116 2.47983C10.9472 2.16305 10.1278 2 9.30039 2C8.47294 2 7.6536 2.16305 6.88919 2.47983C6.12478 2.79661 5.43029 3.26091 4.84539 3.8462C3.66377 5.02843 3 6.63151 3 8.303C3 9.97449 3.66377 11.5776 4.84539 12.7598L6.21429 14.1089L8.05299 15.8954L8.17269 16.0016C8.87019 16.5668 9.89169 16.5308 10.5487 15.8954L12.7402 13.7624L13.7554 12.7598ZM9.30039 11.0003C8.58431 11.0003 7.89755 10.7158 7.3912 10.2095C6.88485 9.70314 6.60039 9.01638 6.60039 8.3003C6.60039 7.58422 6.88485 6.89746 7.3912 6.39111C7.89755 5.88476 8.58431 5.6003 9.30039 5.6003C10.0165 5.6003 10.7032 5.88476 11.2096 6.39111C11.7159 6.89746 12.0004 7.58422 12.0004 8.3003C12.0004 9.01638 11.7159 9.70314 11.2096 10.2095C10.7032 10.7158 10.0165 11.0003 9.30039 11.0003Z" fill="#808080"/>
</svg>
